<svg xmlns="http://www.w3.org/2000/svg" xmlns:xlink="http://www.w3.org/1999/xlink" width="500" zoomAndPan="magnify" viewBox="0 0 375 374.999991" height="500" preserveAspectRatio="xMidYMid meet" version="1.0"><defs><g/><clipPath id="e087913aa7"><path d="M 128 181 L 161 181 L 161 213.949219 L 128 213.949219 Z M 128 181 " clip-rule="nonzero"/></clipPath><clipPath id="20fbe7a450"><path d="M 115.820312 123 L 197 123 L 197 203 L 115.820312 203 Z M 115.820312 123 " clip-rule="nonzero"/></clipPath><clipPath id="7dbe5613c4"><path d="M 208 107.449219 L 241 107.449219 L 241 140 L 208 140 Z M 208 107.449219 " clip-rule="nonzero"/></clipPath><clipPath id="109f2eaa5e"><path d="M 172 118 L 253.070312 118 L 253.070312 198 L 172 198 Z M 172 118 " clip-rule="nonzero"/></clipPath></defs><g clip-path="url(#e087913aa7)"><path fill="#ff1e57" d="M 144.214844 181.992188 C 152.992188 181.992188 160.113281 189.144531 160.113281 197.964844 C 160.113281 206.785156 152.992188 213.9375 144.214844 213.9375 C 135.433594 213.9375 128.3125 206.785156 128.3125 197.964844 C 128.3125 189.144531 135.433594 181.992188 144.214844 181.992188 " fill-opacity="1" fill-rule="nonzero"/></g><g clip-path="url(#20fbe7a450)"><path fill="#ff1e57" d="M 186.207031 150.738281 L 186.207031 188.347656 L 131.25 156.476562 L 168.523438 134.863281 C 168.90625 134.640625 169.136719 134.234375 169.136719 133.792969 L 169.136719 124.707031 C 169.136719 123.757812 168.113281 123.164062 167.296875 123.636719 L 118.386719 152.003906 C 116.796875 152.925781 115.8125 154.632812 115.8125 156.476562 C 115.8125 158.324219 116.796875 160.03125 118.386719 160.953125 L 188.777344 201.777344 C 189.574219 202.238281 190.460938 202.46875 191.351562 202.46875 C 192.238281 202.46875 193.128906 202.238281 193.921875 201.777344 C 195.515625 200.855469 196.496094 199.148438 196.496094 197.300781 L 196.496094 155.304688 C 196.496094 154.863281 196.261719 154.457031 195.882812 154.238281 L 188.050781 149.671875 C 187.230469 149.195312 186.207031 149.789062 186.207031 150.738281 " fill-opacity="1" fill-rule="nonzero"/></g><g clip-path="url(#7dbe5613c4)"><path fill="#333333" d="M 224.660156 139.40625 C 215.878906 139.40625 208.757812 132.253906 208.757812 123.433594 C 208.757812 114.613281 215.878906 107.460938 224.660156 107.460938 C 233.441406 107.460938 240.558594 114.613281 240.558594 123.433594 C 240.558594 132.253906 233.441406 139.40625 224.660156 139.40625 " fill-opacity="1" fill-rule="nonzero"/></g><g clip-path="url(#109f2eaa5e)"><path fill="#333333" d="M 182.667969 170.65625 L 182.667969 133.046875 L 237.621094 164.917969 L 200.347656 186.535156 C 199.96875 186.757812 199.734375 187.164062 199.734375 187.605469 L 199.734375 196.691406 C 199.734375 197.640625 200.757812 198.234375 201.578125 197.757812 L 250.484375 169.394531 C 252.078125 168.472656 253.058594 166.765625 253.058594 164.917969 C 253.058594 163.074219 252.078125 161.367188 250.484375 160.441406 L 180.09375 119.617188 C 179.296875 119.160156 178.410156 118.925781 177.523438 118.925781 C 176.632812 118.925781 175.746094 119.160156 174.949219 119.617188 C 173.355469 120.542969 172.375 122.25 172.375 124.09375 L 172.375 166.09375 C 172.375 166.53125 172.609375 166.941406 172.988281 167.160156 L 180.820312 171.726562 C 181.640625 172.203125 182.667969 171.609375 182.667969 170.65625 " fill-opacity="1" fill-rule="nonzero"/></g><g fill="#ff1e57" fill-opacity="1"><g transform="translate(94.910399, 248.558244)"><g><path d="M 7.621094 0.25 C 11.117188 0.25 14.082031 -1.8125 14.082031 -5.308594 C 14.082031 -12.242188 5.464844 -10.523438 5.464844 -13.773438 C 5.464844 -14.832031 6.277344 -15.332031 7.277344 -15.332031 C 8.339844 -15.332031 9.398438 -14.738281 10.335938 -13.710938 L 13.085938 -16.332031 C 11.710938 -17.925781 9.617188 -18.988281 7.308594 -18.988281 C 4.339844 -18.988281 1.3125 -17.207031 1.3125 -13.460938 C 1.3125 -7.089844 9.960938 -8.617188 9.960938 -5.339844 C 9.960938 -4.308594 9.085938 -3.621094 7.652344 -3.621094 C 5.933594 -3.621094 4.589844 -4.589844 3.902344 -6.058594 L 0.5 -3.933594 C 1.71875 -1.59375 4.339844 0.25 7.621094 0.25 Z M 7.621094 0.25 "/></g></g></g><g fill="#ff1e57" fill-opacity="1"><g transform="translate(110.806275, 248.558244)"><g><path d="M 10.773438 0.25 C 16.113281 0.25 20.390625 -4.058594 20.390625 -9.367188 C 20.390625 -14.675781 16.113281 -18.988281 10.773438 -18.988281 C 5.464844 -18.988281 1.15625 -14.675781 1.15625 -9.367188 C 1.15625 -4.058594 5.464844 0.25 10.773438 0.25 Z M 10.773438 -3.777344 C 7.621094 -3.777344 5.214844 -6.214844 5.214844 -9.367188 C 5.214844 -12.523438 7.621094 -14.957031 10.773438 -14.957031 C 13.957031 -14.957031 16.363281 -12.523438 16.363281 -9.367188 C 16.363281 -6.214844 13.957031 -3.777344 10.773438 -3.777344 Z M 10.773438 -3.777344 "/></g></g></g><g fill="#ff1e57" fill-opacity="1"><g transform="translate(133.476001, 248.558244)"><g><path d="M 10.773438 0.25 C 14.488281 0.25 17.707031 -1.84375 19.300781 -4.902344 L 15.738281 -6.746094 C 14.832031 -4.964844 12.992188 -3.777344 10.773438 -3.777344 C 7.621094 -3.777344 5.214844 -6.214844 5.214844 -9.367188 C 5.214844 -12.523438 7.621094 -14.957031 10.773438 -14.957031 C 12.992188 -14.957031 14.832031 -13.773438 15.738281 -11.992188 L 19.300781 -13.835938 C 17.707031 -16.894531 14.488281 -18.988281 10.773438 -18.988281 C 5.464844 -18.988281 1.15625 -14.675781 1.15625 -9.367188 C 1.15625 -4.058594 5.464844 0.25 10.773438 0.25 Z M 10.773438 0.25 "/></g></g></g><g fill="#ff1e57" fill-opacity="1"><g transform="translate(154.678583, 248.558244)"><g><path d="M 2 0 L 6.121094 0 L 6.121094 -18.738281 L 2 -18.738281 Z M 2 0 "/></g></g></g><g fill="#ff1e57" fill-opacity="1"><g transform="translate(163.863038, 248.558244)"><g><path d="M 13.304688 0 L 17.707031 0 L 10.960938 -18.738281 L 6.339844 -18.738281 L -0.40625 0 L 3.996094 0 L 5.152344 -3.527344 L 12.148438 -3.527344 Z M 6.246094 -6.964844 L 8.648438 -14.394531 L 11.054688 -6.964844 Z M 6.246094 -6.964844 "/></g></g></g><g fill="#ff1e57" fill-opacity="1"><g transform="translate(182.256187, 248.558244)"><g><path d="M 5.964844 -3.652344 L 5.964844 -18.738281 L 1.84375 -18.738281 L 1.84375 0 L 12.179688 0 L 12.179688 -3.652344 Z M 5.964844 -3.652344 "/></g></g></g><g fill="#ff1e57" fill-opacity="1"><g transform="translate(195.592364, 248.558244)"><g/></g></g><g fill="#ff1e57" fill-opacity="1"><g transform="translate(204.183718, 248.558244)"><g><path d="M 7.621094 0.25 C 11.117188 0.25 14.082031 -1.8125 14.082031 -5.308594 C 14.082031 -12.242188 5.464844 -10.523438 5.464844 -13.773438 C 5.464844 -14.832031 6.277344 -15.332031 7.277344 -15.332031 C 8.339844 -15.332031 9.398438 -14.738281 10.335938 -13.710938 L 13.085938 -16.332031 C 11.710938 -17.925781 9.617188 -18.988281 7.308594 -18.988281 C 4.339844 -18.988281 1.3125 -17.207031 1.3125 -13.460938 C 1.3125 -7.089844 9.960938 -8.617188 9.960938 -5.339844 C 9.960938 -4.308594 9.085938 -3.621094 7.652344 -3.621094 C 5.933594 -3.621094 4.589844 -4.589844 3.902344 -6.058594 L 0.5 -3.933594 C 1.71875 -1.59375 4.339844 0.25 7.621094 0.25 Z M 7.621094 0.25 "/></g></g></g><g fill="#ff1e57" fill-opacity="1"><g transform="translate(220.079595, 248.558244)"><g><path d="M 16.832031 -18.738281 L 12.242188 -18.738281 L 8.246094 -12.398438 L 4.246094 -18.738281 L -0.40625 -18.738281 L 6.183594 -8.804688 L 6.183594 0 L 10.304688 0 L 10.304688 -8.835938 Z M 16.832031 -18.738281 "/></g></g></g><g fill="#ff1e57" fill-opacity="1"><g transform="translate(237.629909, 248.558244)"><g><path d="M 15.300781 -18.738281 L 15.300781 -6.339844 L 6.089844 -18.738281 L 1.84375 -18.738281 L 1.84375 0 L 5.964844 0 L 5.964844 -12.429688 L 15.144531 0 L 19.394531 0 L 19.394531 -18.738281 Z M 15.300781 -18.738281 "/></g></g></g><g fill="#ff1e57" fill-opacity="1"><g transform="translate(259.987474, 248.558244)"><g><path d="M 10.773438 0.25 C 14.488281 0.25 17.707031 -1.84375 19.300781 -4.902344 L 15.738281 -6.746094 C 14.832031 -4.964844 12.992188 -3.777344 10.773438 -3.777344 C 7.621094 -3.777344 5.214844 -6.214844 5.214844 -9.367188 C 5.214844 -12.523438 7.621094 -14.957031 10.773438 -14.957031 C 12.992188 -14.957031 14.832031 -13.773438 15.738281 -11.992188 L 19.300781 -13.835938 C 17.707031 -16.894531 14.488281 -18.988281 10.773438 -18.988281 C 5.464844 -18.988281 1.15625 -14.675781 1.15625 -9.367188 C 1.15625 -4.058594 5.464844 0.25 10.773438 0.25 Z M 10.773438 0.25 "/></g></g></g><g fill="#ff1e57" fill-opacity="1"><g transform="translate(102.696751, 264.559259)"><g><path d="M 4.613281 -3.800781 C 5.273438 -4.097656 5.710938 -4.699219 5.710938 -5.5 C 5.710938 -6.671875 4.785156 -7.5 3.636719 -7.5 L 0.914062 -7.5 L 0.914062 0 L 3.898438 0 C 5.035156 0 5.949219 -0.8125 5.949219 -1.972656 C 5.949219 -2.886719 5.398438 -3.535156 4.613281 -3.800781 Z M 4.910156 -5.4375 C 4.910156 -4.699219 4.300781 -4.136719 3.550781 -4.136719 L 1.699219 -4.136719 L 1.699219 -6.699219 L 3.550781 -6.699219 C 4.300781 -6.699219 4.910156 -6.171875 4.910156 -5.4375 Z M 3.800781 -0.800781 L 1.699219 -0.800781 L 1.699219 -3.363281 L 3.800781 -3.363281 C 4.535156 -3.363281 5.148438 -2.800781 5.148438 -2.0625 C 5.148438 -1.324219 4.535156 -0.800781 3.800781 -0.800781 Z M 3.800781 -0.800781 "/></g></g></g><g fill="#ff1e57" fill-opacity="1"><g transform="translate(112.581807, 264.559259)"><g><path d="M 5.074219 -6.722656 L 5.074219 -7.5 L 0.976562 -7.5 L 0.976562 0 L 5.074219 0 L 5.074219 -0.773438 L 1.773438 -0.773438 L 1.773438 -3.363281 L 4.648438 -3.363281 L 4.648438 -4.136719 L 1.773438 -4.136719 L 1.773438 -6.722656 Z M 5.074219 -6.722656 "/></g></g></g><g fill="#ff1e57" fill-opacity="1"><g transform="translate(121.754641, 264.559259)"><g/></g></g><g fill="#ff1e57" fill-opacity="1"><g transform="translate(128.116062, 264.559259)"><g><path d="M 2.800781 0.101562 C 4.074219 0.101562 5.109375 -0.664062 5.109375 -1.972656 C 5.109375 -4.523438 1.460938 -3.898438 1.460938 -5.6875 C 1.460938 -6.4375 2.074219 -6.796875 2.773438 -6.796875 C 3.347656 -6.796875 3.824219 -6.5625 4.125 -6.136719 L 4.75 -6.660156 C 4.335938 -7.1875 3.613281 -7.597656 2.75 -7.597656 C 1.597656 -7.597656 0.664062 -6.847656 0.664062 -5.625 C 0.664062 -3.210938 4.3125 -3.8125 4.3125 -1.949219 C 4.3125 -1.148438 3.648438 -0.699219 2.8125 -0.699219 C 1.960938 -0.699219 1.351562 -1.164062 1.085938 -1.847656 L 0.363281 -1.425781 C 0.75 -0.5 1.6875 0.101562 2.800781 0.101562 Z M 2.800781 0.101562 "/></g></g></g><g fill="#ff1e57" fill-opacity="1"><g transform="translate(136.939039, 264.559259)"><g><path d="M 0.976562 0 L 1.773438 0 L 1.773438 -7.5 L 0.976562 -7.5 Z M 0.976562 0 "/></g></g></g><g fill="#ff1e57" fill-opacity="1"><g transform="translate(143.025573, 264.559259)"><g><path d="M 7.523438 -7.5 L 4.636719 -0.960938 L 1.761719 -7.5 L 0.914062 -7.5 L 0.914062 0 L 1.710938 0 L 1.710938 -5.921875 L 4.300781 0 L 4.960938 0 L 7.574219 -5.898438 L 7.574219 0 L 8.359375 0 L 8.359375 -7.5 Z M 7.523438 -7.5 "/></g></g></g><g fill="#ff1e57" fill-opacity="1"><g transform="translate(155.647072, 264.559259)"><g><path d="M 3.597656 -7.5 L 0.914062 -7.5 L 0.914062 0 L 1.710938 0 L 1.710938 -3.335938 L 3.597656 -3.335938 C 4.761719 -3.335938 5.6875 -4.25 5.6875 -5.410156 C 5.6875 -6.5625 4.761719 -7.5 3.597656 -7.5 Z M 3.523438 -4.097656 L 1.710938 -4.097656 L 1.710938 -6.722656 L 3.523438 -6.722656 C 4.273438 -6.722656 4.886719 -6.199219 4.886719 -5.398438 C 4.886719 -4.574219 4.273438 -4.097656 3.523438 -4.097656 Z M 3.523438 -4.097656 "/></g></g></g><g fill="#ff1e57" fill-opacity="1"><g transform="translate(164.894876, 264.559259)"><g><path d="M 1.710938 -0.800781 L 1.710938 -7.5 L 0.914062 -7.5 L 0.914062 0 L 4.5 0 L 4.5 -0.800781 Z M 1.710938 -0.800781 "/></g></g></g><g fill="#ff1e57" fill-opacity="1"><g transform="translate(172.855678, 264.559259)"><g><path d="M 5.074219 -6.722656 L 5.074219 -7.5 L 0.976562 -7.5 L 0.976562 0 L 5.074219 0 L 5.074219 -0.773438 L 1.773438 -0.773438 L 1.773438 -3.363281 L 4.648438 -3.363281 L 4.648438 -4.136719 L 1.773438 -4.136719 L 1.773438 -6.722656 Z M 5.074219 -6.722656 "/></g></g></g><g fill="#ff1e57" fill-opacity="1"><g transform="translate(182.028512, 264.559259)"><g><path d="M 0.710938 1.550781 L 2.25 -1.261719 L 1.375 -1.261719 L 0.0625 1.550781 Z M 0.710938 1.550781 "/></g></g></g><g fill="#ff1e57" fill-opacity="1"><g transform="translate(187.477793, 264.559259)"><g/></g></g><g fill="#ff1e57" fill-opacity="1"><g transform="translate(193.839214, 264.559259)"><g><path d="M 4.613281 -3.800781 C 5.273438 -4.097656 5.710938 -4.699219 5.710938 -5.5 C 5.710938 -6.671875 4.785156 -7.5 3.636719 -7.5 L 0.914062 -7.5 L 0.914062 0 L 3.898438 0 C 5.035156 0 5.949219 -0.8125 5.949219 -1.972656 C 5.949219 -2.886719 5.398438 -3.535156 4.613281 -3.800781 Z M 4.910156 -5.4375 C 4.910156 -4.699219 4.300781 -4.136719 3.550781 -4.136719 L 1.699219 -4.136719 L 1.699219 -6.699219 L 3.550781 -6.699219 C 4.300781 -6.699219 4.910156 -6.171875 4.910156 -5.4375 Z M 3.800781 -0.800781 L 1.699219 -0.800781 L 1.699219 -3.363281 L 3.800781 -3.363281 C 4.535156 -3.363281 5.148438 -2.800781 5.148438 -2.0625 C 5.148438 -1.324219 4.535156 -0.800781 3.800781 -0.800781 Z M 3.800781 -0.800781 "/></g></g></g><g fill="#ff1e57" fill-opacity="1"><g transform="translate(203.724271, 264.559259)"><g><path d="M 5.074219 -6.722656 L 5.074219 -7.5 L 0.976562 -7.5 L 0.976562 0 L 5.074219 0 L 5.074219 -0.773438 L 1.773438 -0.773438 L 1.773438 -3.363281 L 4.648438 -3.363281 L 4.648438 -4.136719 L 1.773438 -4.136719 L 1.773438 -6.722656 Z M 5.074219 -6.722656 "/></g></g></g><g fill="#ff1e57" fill-opacity="1"><g transform="translate(212.897099, 264.559259)"><g/></g></g><g fill="#ff1e57" fill-opacity="1"><g transform="translate(219.258526, 264.559259)"><g><path d="M 2.800781 0.101562 C 4.074219 0.101562 5.109375 -0.664062 5.109375 -1.972656 C 5.109375 -4.523438 1.460938 -3.898438 1.460938 -5.6875 C 1.460938 -6.4375 2.074219 -6.796875 2.773438 -6.796875 C 3.347656 -6.796875 3.824219 -6.5625 4.125 -6.136719 L 4.75 -6.660156 C 4.335938 -7.1875 3.613281 -7.597656 2.75 -7.597656 C 1.597656 -7.597656 0.664062 -6.847656 0.664062 -5.625 C 0.664062 -3.210938 4.3125 -3.8125 4.3125 -1.949219 C 4.3125 -1.148438 3.648438 -0.699219 2.8125 -0.699219 C 1.960938 -0.699219 1.351562 -1.164062 1.085938 -1.847656 L 0.363281 -1.425781 C 0.75 -0.5 1.6875 0.101562 2.800781 0.101562 Z M 2.800781 0.101562 "/></g></g></g><g fill="#ff1e57" fill-opacity="1"><g transform="translate(228.081508, 264.559259)"><g><path d="M 4.460938 0.101562 C 6.597656 0.101562 8.308594 -1.625 8.308594 -3.75 C 8.308594 -5.875 6.597656 -7.597656 4.460938 -7.597656 C 2.335938 -7.597656 0.613281 -5.875 0.613281 -3.75 C 0.613281 -1.625 2.335938 0.101562 4.460938 0.101562 Z M 4.460938 -0.699219 C 2.773438 -0.699219 1.414062 -2.050781 1.414062 -3.75 C 1.414062 -5.449219 2.773438 -6.796875 4.460938 -6.796875 C 6.160156 -6.796875 7.511719 -5.449219 7.511719 -3.75 C 7.511719 -2.050781 6.160156 -0.699219 4.460938 -0.699219 Z M 4.460938 -0.699219 "/></g></g></g><g fill="#ff1e57" fill-opacity="1"><g transform="translate(240.365641, 264.559259)"><g><path d="M 4.460938 0.101562 C 5.898438 0.101562 7.148438 -0.6875 7.808594 -1.847656 L 7.125 -2.238281 C 6.609375 -1.3125 5.609375 -0.699219 4.460938 -0.699219 C 2.773438 -0.699219 1.414062 -2.050781 1.414062 -3.75 C 1.414062 -5.449219 2.773438 -6.796875 4.460938 -6.796875 C 5.609375 -6.796875 6.609375 -6.1875 7.125 -5.261719 L 7.808594 -5.648438 C 7.148438 -6.8125 5.898438 -7.597656 4.460938 -7.597656 C 2.335938 -7.597656 0.613281 -5.875 0.613281 -3.75 C 0.613281 -1.625 2.335938 0.101562 4.460938 0.101562 Z M 4.460938 0.101562 "/></g></g></g><g fill="#ff1e57" fill-opacity="1"><g transform="translate(251.93754, 264.559259)"><g><path d="M 0.976562 0 L 1.773438 0 L 1.773438 -7.5 L 0.976562 -7.5 Z M 0.976562 0 "/></g></g></g><g fill="#ff1e57" fill-opacity="1"><g transform="translate(258.02408, 264.559259)"><g><path d="M 5.4375 0 L 6.3125 0 L 3.597656 -7.5 L 2.710938 -7.5 L 0 0 L 0.875 0 L 1.488281 -1.75 L 4.824219 -1.75 Z M 1.75 -2.511719 L 3.160156 -6.546875 L 4.5625 -2.511719 Z M 1.75 -2.511719 "/></g></g></g><g fill="#ff1e57" fill-opacity="1"><g transform="translate(267.68422, 264.559259)"><g><path d="M 1.710938 -0.800781 L 1.710938 -7.5 L 0.914062 -7.5 L 0.914062 0 L 4.5 0 L 4.5 -0.800781 Z M 1.710938 -0.800781 "/></g></g></g></svg>