<svg xmlns="http://www.w3.org/2000/svg" xmlns:xlink="http://www.w3.org/1999/xlink" width="500" zoomAndPan="magnify" viewBox="0 0 375 374.999991" height="500" preserveAspectRatio="xMidYMid meet" version="1.0"><defs><g/><clipPath id="3db1eb4b9a"><path d="M 78 162 L 141 162 L 141 223.511719 L 78 223.511719 Z M 78 162 " clip-rule="nonzero"/></clipPath><clipPath id="6a6a866aba"><path d="M 54.789062 49 L 211 49 L 211 202 L 54.789062 202 Z M 54.789062 49 " clip-rule="nonzero"/></clipPath><clipPath id="c33c1639d8"><path d="M 234 18.761719 L 297 18.761719 L 297 81 L 234 81 Z M 234 18.761719 " clip-rule="nonzero"/></clipPath><clipPath id="177ef390d6"><path d="M 164 40 L 320.289062 40 L 320.289062 193 L 164 193 Z M 164 40 " clip-rule="nonzero"/></clipPath></defs><g clip-path="url(#3db1eb4b9a)"><path fill="#ff1e57" d="M 109.714844 162.074219 C 126.703125 162.074219 140.472656 175.820312 140.472656 192.78125 C 140.472656 209.738281 126.703125 223.484375 109.714844 223.484375 C 92.730469 223.484375 78.957031 209.738281 78.957031 192.78125 C 78.957031 175.820312 92.730469 162.074219 109.714844 162.074219 " fill-opacity="1" fill-rule="nonzero"/></g><g clip-path="url(#6a6a866aba)"><path fill="#ff1e57" d="M 190.945312 101.988281 L 190.945312 174.292969 L 84.640625 113.019531 L 156.742188 71.464844 C 157.480469 71.039062 157.929688 70.253906 157.929688 69.40625 L 157.929688 51.941406 C 157.929688 50.113281 155.949219 48.972656 154.367188 49.886719 L 59.757812 104.417969 C 56.679688 106.191406 54.777344 109.472656 54.777344 113.019531 C 54.777344 116.570312 56.679688 119.851562 59.757812 121.625 L 195.921875 200.109375 C 197.460938 200.996094 199.179688 201.441406 200.898438 201.441406 C 202.617188 201.441406 204.335938 200.996094 205.875 200.109375 C 208.957031 198.335938 210.855469 195.054688 210.855469 191.503906 L 210.855469 110.765625 C 210.855469 109.917969 210.398438 109.136719 209.667969 108.710938 L 194.519531 99.9375 C 192.929688 99.019531 190.945312 100.160156 190.945312 101.988281 " fill-opacity="1" fill-rule="nonzero"/></g><g clip-path="url(#c33c1639d8)"><path fill="#333333" d="M 265.332031 80.199219 C 248.34375 80.199219 234.574219 66.449219 234.574219 49.492188 C 234.574219 32.53125 248.34375 18.785156 265.332031 18.785156 C 282.320312 18.785156 296.089844 32.53125 296.089844 49.492188 C 296.089844 66.449219 282.320312 80.199219 265.332031 80.199219 " fill-opacity="1" fill-rule="nonzero"/></g><g clip-path="url(#177ef390d6)"><path fill="#333333" d="M 184.101562 140.28125 L 184.101562 67.976562 L 290.40625 129.25 L 218.304688 170.808594 C 217.566406 171.230469 217.117188 172.015625 217.117188 172.863281 L 217.117188 190.328125 C 217.117188 192.15625 219.097656 193.296875 220.679688 192.382812 L 315.289062 137.855469 C 318.367188 136.078125 320.269531 132.800781 320.269531 129.25 C 320.269531 125.699219 318.367188 122.417969 315.289062 120.644531 L 179.125 42.15625 C 177.585938 41.273438 175.867188 40.828125 174.148438 40.828125 C 172.429688 40.828125 170.710938 41.273438 169.171875 42.15625 C 166.09375 43.933594 164.191406 47.214844 164.191406 50.765625 L 164.191406 131.503906 C 164.191406 132.351562 164.644531 133.132812 165.378906 133.558594 L 180.53125 142.335938 C 182.117188 143.253906 184.101562 142.113281 184.101562 140.28125 " fill-opacity="1" fill-rule="nonzero"/></g><g fill="#ff1e57" fill-opacity="1"><g transform="translate(68.091835, 264.357094)"><g><path d="M 9.828125 0.320312 C 14.335938 0.320312 18.164062 -2.335938 18.164062 -6.847656 C 18.164062 -15.785156 7.046875 -13.570312 7.046875 -17.761719 C 7.046875 -19.128906 8.09375 -19.773438 9.382812 -19.773438 C 10.753906 -19.773438 12.121094 -19.007812 13.328125 -17.679688 L 16.875 -21.0625 C 15.101562 -23.117188 12.402344 -24.484375 9.421875 -24.484375 C 5.597656 -24.484375 1.691406 -22.191406 1.691406 -17.355469 C 1.691406 -9.140625 12.847656 -11.113281 12.847656 -6.886719 C 12.847656 -5.558594 11.71875 -4.671875 9.867188 -4.671875 C 7.652344 -4.671875 5.921875 -5.921875 5.035156 -7.8125 L 0.644531 -5.074219 C 2.214844 -2.054688 5.597656 0.320312 9.828125 0.320312 Z M 9.828125 0.320312 "/></g></g></g><g fill="#ff1e57" fill-opacity="1"><g transform="translate(88.591099, 264.357094)"><g><path d="M 13.894531 0.320312 C 20.78125 0.320312 26.296875 -5.234375 26.296875 -12.082031 C 26.296875 -18.925781 20.78125 -24.484375 13.894531 -24.484375 C 7.046875 -24.484375 1.488281 -18.925781 1.488281 -12.082031 C 1.488281 -5.234375 7.046875 0.320312 13.894531 0.320312 Z M 13.894531 -4.871094 C 9.828125 -4.871094 6.726562 -8.015625 6.726562 -12.082031 C 6.726562 -16.148438 9.828125 -19.289062 13.894531 -19.289062 C 18 -19.289062 21.101562 -16.148438 21.101562 -12.082031 C 21.101562 -8.015625 18 -4.871094 13.894531 -4.871094 Z M 13.894531 -4.871094 "/></g></g></g><g fill="#ff1e57" fill-opacity="1"><g transform="translate(117.825892, 264.357094)"><g><path d="M 13.894531 0.320312 C 18.6875 0.320312 22.835938 -2.375 24.886719 -6.324219 L 20.296875 -8.699219 C 19.128906 -6.402344 16.753906 -4.871094 13.894531 -4.871094 C 9.828125 -4.871094 6.726562 -8.015625 6.726562 -12.082031 C 6.726562 -16.148438 9.828125 -19.289062 13.894531 -19.289062 C 16.753906 -19.289062 19.128906 -17.761719 20.296875 -15.464844 L 24.886719 -17.839844 C 22.835938 -21.785156 18.6875 -24.484375 13.894531 -24.484375 C 7.046875 -24.484375 1.488281 -18.925781 1.488281 -12.082031 C 1.488281 -5.234375 7.046875 0.320312 13.894531 0.320312 Z M 13.894531 0.320312 "/></g></g></g><g fill="#ff1e57" fill-opacity="1"><g transform="translate(145.168662, 264.357094)"><g><path d="M 2.578125 0 L 7.894531 0 L 7.894531 -24.164062 L 2.578125 -24.164062 Z M 2.578125 0 "/></g></g></g><g fill="#ff1e57" fill-opacity="1"><g transform="translate(157.012901, 264.357094)"><g><path d="M 17.15625 0 L 22.835938 0 L 14.136719 -24.164062 L 8.175781 -24.164062 L -0.523438 0 L 5.15625 0 L 6.644531 -4.550781 L 15.664062 -4.550781 Z M 8.054688 -8.980469 L 11.15625 -18.566406 L 14.257812 -8.980469 Z M 8.054688 -8.980469 "/></g></g></g><g fill="#ff1e57" fill-opacity="1"><g transform="translate(180.732637, 264.357094)"><g><path d="M 7.691406 -4.710938 L 7.691406 -24.164062 L 2.375 -24.164062 L 2.375 0 L 15.707031 0 L 15.707031 -4.710938 Z M 7.691406 -4.710938 "/></g></g></g><g fill="#ff1e57" fill-opacity="1"><g transform="translate(197.930921, 264.357094)"><g/></g></g><g fill="#ff1e57" fill-opacity="1"><g transform="translate(209.010298, 264.357094)"><g><path d="M 9.828125 0.320312 C 14.335938 0.320312 18.164062 -2.335938 18.164062 -6.847656 C 18.164062 -15.785156 7.046875 -13.570312 7.046875 -17.761719 C 7.046875 -19.128906 8.09375 -19.773438 9.382812 -19.773438 C 10.753906 -19.773438 12.121094 -19.007812 13.328125 -17.679688 L 16.875 -21.0625 C 15.101562 -23.117188 12.402344 -24.484375 9.421875 -24.484375 C 5.597656 -24.484375 1.691406 -22.191406 1.691406 -17.355469 C 1.691406 -9.140625 12.847656 -11.113281 12.847656 -6.886719 C 12.847656 -5.558594 11.71875 -4.671875 9.867188 -4.671875 C 7.652344 -4.671875 5.921875 -5.921875 5.035156 -7.8125 L 0.644531 -5.074219 C 2.214844 -2.054688 5.597656 0.320312 9.828125 0.320312 Z M 9.828125 0.320312 "/></g></g></g><g fill="#ff1e57" fill-opacity="1"><g transform="translate(229.509562, 264.357094)"><g><path d="M 21.707031 -24.164062 L 15.785156 -24.164062 L 10.632812 -15.988281 L 5.476562 -24.164062 L -0.523438 -24.164062 L 7.972656 -11.355469 L 7.972656 0 L 13.289062 0 L 13.289062 -11.398438 Z M 21.707031 -24.164062 "/></g></g></g><g fill="#ff1e57" fill-opacity="1"><g transform="translate(252.142382, 264.357094)"><g><path d="M 19.734375 -24.164062 L 19.734375 -8.175781 L 7.851562 -24.164062 L 2.375 -24.164062 L 2.375 0 L 7.691406 0 L 7.691406 -16.027344 L 19.53125 0 L 25.007812 0 L 25.007812 -24.164062 Z M 19.734375 -24.164062 "/></g></g></g><g fill="#ff1e57" fill-opacity="1"><g transform="translate(280.974614, 264.357094)"><g><path d="M 13.894531 0.320312 C 18.6875 0.320312 22.835938 -2.375 24.886719 -6.324219 L 20.296875 -8.699219 C 19.128906 -6.402344 16.753906 -4.871094 13.894531 -4.871094 C 9.828125 -4.871094 6.726562 -8.015625 6.726562 -12.082031 C 6.726562 -16.148438 9.828125 -19.289062 13.894531 -19.289062 C 16.753906 -19.289062 19.128906 -17.761719 20.296875 -15.464844 L 24.886719 -17.839844 C 22.835938 -21.785156 18.6875 -24.484375 13.894531 -24.484375 C 7.046875 -24.484375 1.488281 -18.925781 1.488281 -12.082031 C 1.488281 -5.234375 7.046875 0.320312 13.894531 0.320312 Z M 13.894531 0.320312 "/></g></g></g><g fill="#ff1e57" fill-opacity="1"><g transform="translate(80.427252, 296.755747)"><g><path d="M 5.824219 -4.796875 C 6.660156 -5.175781 7.210938 -5.933594 7.210938 -6.941406 C 7.210938 -8.425781 6.042969 -9.46875 4.589844 -9.46875 L 1.152344 -9.46875 L 1.152344 0 L 4.921875 0 C 6.359375 0 7.511719 -1.027344 7.511719 -2.492188 C 7.511719 -3.644531 6.816406 -4.464844 5.824219 -4.796875 Z M 6.199219 -6.863281 C 6.199219 -5.933594 5.429688 -5.222656 4.480469 -5.222656 L 2.144531 -5.222656 L 2.144531 -8.457031 L 4.480469 -8.457031 C 5.429688 -8.457031 6.199219 -7.792969 6.199219 -6.863281 Z M 4.796875 -1.011719 L 2.144531 -1.011719 L 2.144531 -4.246094 L 4.796875 -4.246094 C 5.726562 -4.246094 6.5 -3.535156 6.5 -2.601562 C 6.5 -1.671875 5.726562 -1.011719 4.796875 -1.011719 Z M 4.796875 -1.011719 "/></g></g></g><g fill="#ff1e57" fill-opacity="1"><g transform="translate(92.908131, 296.755747)"><g><path d="M 6.40625 -8.488281 L 6.40625 -9.46875 L 1.230469 -9.46875 L 1.230469 0 L 6.40625 0 L 6.40625 -0.976562 L 2.242188 -0.976562 L 2.242188 -4.246094 L 5.871094 -4.246094 L 5.871094 -5.222656 L 2.242188 -5.222656 L 2.242188 -8.488281 Z M 6.40625 -8.488281 "/></g></g></g><g fill="#ff1e57" fill-opacity="1"><g transform="translate(104.489757, 296.755747)"><g/></g></g><g fill="#ff1e57" fill-opacity="1"><g transform="translate(112.521691, 296.755747)"><g><path d="M 3.535156 0.125 C 5.144531 0.125 6.453125 -0.835938 6.453125 -2.492188 C 6.453125 -5.710938 1.847656 -4.921875 1.847656 -7.179688 C 1.847656 -8.125 2.621094 -8.582031 3.503906 -8.582031 C 4.230469 -8.582031 4.828125 -8.285156 5.207031 -7.746094 L 5.996094 -8.410156 C 5.476562 -9.074219 4.558594 -9.59375 3.472656 -9.59375 C 2.019531 -9.59375 0.835938 -8.648438 0.835938 -7.101562 C 0.835938 -4.054688 5.445312 -4.8125 5.445312 -2.460938 C 5.445312 -1.453125 4.605469 -0.882812 3.550781 -0.882812 C 2.476562 -0.882812 1.703125 -1.46875 1.371094 -2.335938 L 0.457031 -1.796875 C 0.945312 -0.632812 2.128906 0.125 3.535156 0.125 Z M 3.535156 0.125 "/></g></g></g><g fill="#ff1e57" fill-opacity="1"><g transform="translate(123.661587, 296.755747)"><g><path d="M 1.230469 0 L 2.242188 0 L 2.242188 -9.46875 L 1.230469 -9.46875 Z M 1.230469 0 "/></g></g></g><g fill="#ff1e57" fill-opacity="1"><g transform="translate(131.346449, 296.755747)"><g><path d="M 9.5 -9.46875 L 5.855469 -1.214844 L 2.226562 -9.46875 L 1.152344 -9.46875 L 1.152344 0 L 2.160156 0 L 2.160156 -7.480469 L 5.429688 0 L 6.265625 0 L 9.5625 -7.449219 L 9.5625 0 L 10.554688 0 L 10.554688 -9.46875 Z M 9.5 -9.46875 "/></g></g></g><g fill="#ff1e57" fill-opacity="1"><g transform="translate(147.282362, 296.755747)"><g><path d="M 4.542969 -9.46875 L 1.152344 -9.46875 L 1.152344 0 L 2.160156 0 L 2.160156 -4.210938 L 4.542969 -4.210938 C 6.011719 -4.210938 7.179688 -5.363281 7.179688 -6.832031 C 7.179688 -8.285156 6.011719 -9.46875 4.542969 -9.46875 Z M 4.449219 -5.175781 L 2.160156 -5.175781 L 2.160156 -8.488281 L 4.449219 -8.488281 C 5.394531 -8.488281 6.167969 -7.824219 6.167969 -6.816406 C 6.167969 -5.773438 5.394531 -5.175781 4.449219 -5.175781 Z M 4.449219 -5.175781 "/></g></g></g><g fill="#ff1e57" fill-opacity="1"><g transform="translate(158.958646, 296.755747)"><g><path d="M 2.160156 -1.011719 L 2.160156 -9.46875 L 1.152344 -9.46875 L 1.152344 0 L 5.679688 0 L 5.679688 -1.011719 Z M 2.160156 -1.011719 "/></g></g></g><g fill="#ff1e57" fill-opacity="1"><g transform="translate(169.009959, 296.755747)"><g><path d="M 6.40625 -8.488281 L 6.40625 -9.46875 L 1.230469 -9.46875 L 1.230469 0 L 6.40625 0 L 6.40625 -0.976562 L 2.242188 -0.976562 L 2.242188 -4.246094 L 5.871094 -4.246094 L 5.871094 -5.222656 L 2.242188 -5.222656 L 2.242188 -8.488281 Z M 6.40625 -8.488281 "/></g></g></g><g fill="#ff1e57" fill-opacity="1"><g transform="translate(180.591585, 296.755747)"><g><path d="M 0.898438 1.957031 L 2.839844 -1.59375 L 1.734375 -1.59375 L 0.078125 1.957031 Z M 0.898438 1.957031 "/></g></g></g><g fill="#ff1e57" fill-opacity="1"><g transform="translate(187.471851, 296.755747)"><g/></g></g><g fill="#ff1e57" fill-opacity="1"><g transform="translate(195.503785, 296.755747)"><g><path d="M 5.824219 -4.796875 C 6.660156 -5.175781 7.210938 -5.933594 7.210938 -6.941406 C 7.210938 -8.425781 6.042969 -9.46875 4.589844 -9.46875 L 1.152344 -9.46875 L 1.152344 0 L 4.921875 0 C 6.359375 0 7.511719 -1.027344 7.511719 -2.492188 C 7.511719 -3.644531 6.816406 -4.464844 5.824219 -4.796875 Z M 6.199219 -6.863281 C 6.199219 -5.933594 5.429688 -5.222656 4.480469 -5.222656 L 2.144531 -5.222656 L 2.144531 -8.457031 L 4.480469 -8.457031 C 5.429688 -8.457031 6.199219 -7.792969 6.199219 -6.863281 Z M 4.796875 -1.011719 L 2.144531 -1.011719 L 2.144531 -4.246094 L 4.796875 -4.246094 C 5.726562 -4.246094 6.5 -3.535156 6.5 -2.601562 C 6.5 -1.671875 5.726562 -1.011719 4.796875 -1.011719 Z M 4.796875 -1.011719 "/></g></g></g><g fill="#ff1e57" fill-opacity="1"><g transform="translate(207.984664, 296.755747)"><g><path d="M 6.40625 -8.488281 L 6.40625 -9.46875 L 1.230469 -9.46875 L 1.230469 0 L 6.40625 0 L 6.40625 -0.976562 L 2.242188 -0.976562 L 2.242188 -4.246094 L 5.871094 -4.246094 L 5.871094 -5.222656 L 2.242188 -5.222656 L 2.242188 -8.488281 Z M 6.40625 -8.488281 "/></g></g></g><g fill="#ff1e57" fill-opacity="1"><g transform="translate(219.566283, 296.755747)"><g/></g></g><g fill="#ff1e57" fill-opacity="1"><g transform="translate(227.598224, 296.755747)"><g><path d="M 3.535156 0.125 C 5.144531 0.125 6.453125 -0.835938 6.453125 -2.492188 C 6.453125 -5.710938 1.847656 -4.921875 1.847656 -7.179688 C 1.847656 -8.125 2.621094 -8.582031 3.503906 -8.582031 C 4.230469 -8.582031 4.828125 -8.285156 5.207031 -7.746094 L 5.996094 -8.410156 C 5.476562 -9.074219 4.558594 -9.59375 3.472656 -9.59375 C 2.019531 -9.59375 0.835938 -8.648438 0.835938 -7.101562 C 0.835938 -4.054688 5.445312 -4.8125 5.445312 -2.460938 C 5.445312 -1.453125 4.605469 -0.882812 3.550781 -0.882812 C 2.476562 -0.882812 1.703125 -1.46875 1.371094 -2.335938 L 0.457031 -1.796875 C 0.945312 -0.632812 2.128906 0.125 3.535156 0.125 Z M 3.535156 0.125 "/></g></g></g><g fill="#ff1e57" fill-opacity="1"><g transform="translate(238.738127, 296.755747)"><g><path d="M 5.632812 0.125 C 8.332031 0.125 10.492188 -2.050781 10.492188 -4.734375 C 10.492188 -7.414062 8.332031 -9.59375 5.632812 -9.59375 C 2.949219 -9.59375 0.773438 -7.414062 0.773438 -4.734375 C 0.773438 -2.050781 2.949219 0.125 5.632812 0.125 Z M 5.632812 -0.882812 C 3.503906 -0.882812 1.78125 -2.585938 1.78125 -4.734375 C 1.78125 -6.878906 3.503906 -8.582031 5.632812 -8.582031 C 7.777344 -8.582031 9.484375 -6.878906 9.484375 -4.734375 C 9.484375 -2.585938 7.777344 -0.882812 5.632812 -0.882812 Z M 5.632812 -0.882812 "/></g></g></g><g fill="#ff1e57" fill-opacity="1"><g transform="translate(254.248082, 296.755747)"><g><path d="M 5.632812 0.125 C 7.449219 0.125 9.023438 -0.867188 9.863281 -2.335938 L 8.992188 -2.824219 C 8.347656 -1.65625 7.085938 -0.882812 5.632812 -0.882812 C 3.503906 -0.882812 1.78125 -2.585938 1.78125 -4.734375 C 1.78125 -6.878906 3.503906 -8.582031 5.632812 -8.582031 C 7.085938 -8.582031 8.347656 -7.808594 8.992188 -6.644531 L 9.863281 -7.132812 C 9.023438 -8.597656 7.449219 -9.59375 5.632812 -9.59375 C 2.949219 -9.59375 0.773438 -7.414062 0.773438 -4.734375 C 0.773438 -2.050781 2.949219 0.125 5.632812 0.125 Z M 5.632812 0.125 "/></g></g></g><g fill="#ff1e57" fill-opacity="1"><g transform="translate(268.858768, 296.755747)"><g><path d="M 1.230469 0 L 2.242188 0 L 2.242188 -9.46875 L 1.230469 -9.46875 Z M 1.230469 0 "/></g></g></g><g fill="#ff1e57" fill-opacity="1"><g transform="translate(276.543637, 296.755747)"><g><path d="M 6.863281 0 L 7.96875 0 L 4.542969 -9.46875 L 3.425781 -9.46875 L 0 0 L 1.105469 0 L 1.878906 -2.210938 L 6.089844 -2.210938 Z M 2.210938 -3.171875 L 3.992188 -8.269531 L 5.757812 -3.171875 Z M 2.210938 -3.171875 "/></g></g></g><g fill="#ff1e57" fill-opacity="1"><g transform="translate(288.740537, 296.755747)"><g><path d="M 2.160156 -1.011719 L 2.160156 -9.46875 L 1.152344 -9.46875 L 1.152344 0 L 5.679688 0 L 5.679688 -1.011719 Z M 2.160156 -1.011719 "/></g></g></g></svg>